TITLE:   R1AB_2017.09.08_z095-z093
000001  PXR_HEAD V     C        01:00:00:01 01:00:08:01 01:00:00:00 01:00:08:00 
* FROM CLIP NAME:  PXR_HEADLEADER_ALLRATIOS (INTL1)
000002  LG_DISNE V     C        01:00:00:01 01:00:31:05 01:00:08:00 01:00:39:04 
* FROM CLIP NAME:  LG_DISNEYSPARKLE_HEAD239 (REN3)
000003  LG_PIXAR V     C        01:00:00:01 01:00:12:08 01:00:39:04 01:00:51:11 
* FROM CLIP NAME:  LG_PIXARLUXO_HEAD239 (REN3)
000004  095_TONY V     C        01:00:00:01 01:00:02:20 01:00:51:11 01:00:54:06 
* FROM CLIP NAME:  LG_BLACK239 (REN2)
000005  Z095_1D. V     C        01:00:03:12 01:00:10:16 01:00:54:06 01:01:01:10 
* FROM CLIP NAME:  Z095_1D (LAY2)
000006  Z095_2C. V     C        01:00:09:03 01:00:12:06 01:01:01:10 01:01:04:13 
* FROM CLIP NAME:  Z095_2C (LAY1)
000007  Z095_3B. V     C        01:00:12:14 01:00:14:02 01:01:04:13 01:01:06:01 
* FROM CLIP NAME:  Z095_3B (LAY2)
000008  Z095_4C. V     C        01:00:14:03 01:00:15:09 01:01:06:01 01:01:07:07 
* FROM CLIP NAME:  Z095_4C (LAY1)
000009  Z095_5C. V     C        01:00:04:12 01:00:08:02 01:01:07:07 01:01:10:21 
* FROM CLIP NAME:  Z095_5C (LAY1)
000010  Z095_6D. V     C        01:00:04:10 01:00:06:10 01:01:10:21 01:01:12:21 
* FROM CLIP NAME:  Z095_6D (LAY1)
000011  Z095_7.L V     C        01:00:04:00 01:00:04:23 01:01:12:21 01:01:13:20 
* FROM CLIP NAME:  Z095_7 (LAY6)
000012  Z095_8A. V     C        01:00:03:10 01:00:04:16 01:01:13:20 01:01:15:02 
* FROM CLIP NAME:  Z095_8A (LAY2)
000013  Z095_9D. V     C        01:00:04:05 01:00:08:02 01:01:15:02 01:01:18:23 
* FROM CLIP NAME:  Z095_9D (LAY1)
000014  Z095_9D. V     C        01:00:08:01 01:00:08:02 01:01:18:23 01:01:19:01 
M2   Z095_9D.       000.0                01:00:08:01 
* FROM CLIP NAME:  Z095_9D (LAY1) FF 
* * FREEZE FRAME
000015  Z095_11E V     C        01:00:02:16 01:00:05:08 01:01:19:01 01:01:21:17 
* FROM CLIP NAME:  Z095_11E (LAY2)
000016  Z095_12A V     C        01:00:04:00 01:00:04:16 01:01:21:17 01:01:22:09 
* FROM CLIP NAME:  Z095_12A (LAY9)
000017  Z095_13D V     C        01:00:04:05 01:00:07:20 01:01:22:09 01:01:24:05 
M2   Z095_13D       047.6                01:00:04:05 
* FROM CLIP NAME:  Z095_13D (LAY1) (47.61 FPS)
000018  Z095_16B V     C        01:00:03:20 01:00:10:19 01:01:24:05 01:01:28:21 
M2   Z095_16B       036.0                01:00:03:20 
* FROM CLIP NAME:  Z095_16B (LAY4) (36.00 FPS)
000019  Z095_TON V     C        01:00:10:12 01:00:12:16 01:01:28:21 01:01:31:01 
* FROM CLIP NAME:  Z095_16A (LAY4)
000020  Z095_TON V     C        01:00:09:04 01:00:10:06 01:01:31:01 01:01:32:03 
* FROM CLIP NAME:  Z095_17A (LAY8)
000021  Z095_TON V     C        01:00:05:10 01:00:06:19 01:01:32:03 01:01:33:12 
* FROM CLIP NAME:  Z095_17 (LAY13)
000022  Z095_TON V     C        01:00:06:19 01:00:10:00 01:01:33:12 01:01:35:03 
M2   Z095_TON       048.0                01:00:06:19 
* FROM CLIP NAME:  Z095_17 (LAY13) (48.00 FPS)
000023  Z095_18B V     C        01:00:04:05 01:00:06:23 01:01:35:03 01:01:37:00 
M2   Z095_18B       035.9                01:00:04:05 
* FROM CLIP NAME:  Z095_18B (LAY1) (35.87 FPS)
000024  Z095_18B V     C        01:00:07:00 01:00:08:20 01:01:37:00 01:01:38:20 
* FROM CLIP NAME:  Z095_18B (LAY1)
000025  Z095_19B V     C        01:00:04:15 01:00:11:20 01:01:38:20 01:01:46:01 
* FROM CLIP NAME:  Z095_19B (LAY3)
000026  Z095_20B V     C        01:00:05:01 01:00:07:12 01:01:46:01 01:01:48:12 
* FROM CLIP NAME:  Z095_20B (LAY6)
000027  Z095_TON V     C        01:00:04:18 01:00:08:05 01:01:48:12 01:01:51:23 
* FROM CLIP NAME:  Z095_20A (LAY2)
000028  Z095_TON V     C        01:00:04:05 01:00:07:19 01:01:51:23 01:01:55:13 
* FROM CLIP NAME:  Z095_22A (LAY5)
000029  Z095_TON V     C        01:00:05:09 01:00:06:17 01:01:55:13 01:01:56:21 
* FROM CLIP NAME:  Z095_23 (LAY9)
000030  Z095_TON V     C        01:00:05:22 01:00:11:09 01:01:56:21 01:02:02:08 
* FROM CLIP NAME:  Z095_24 (LAY6)
000031  Z095_TON V     C        01:00:11:08 01:00:11:09 01:02:02:08 01:02:03:21 
M2   Z095_TON       000.0                01:00:11:08 
* FROM CLIP NAME:  Z095_24 (LAY6) FF 
* * FREEZE FRAME
000032  Z095_25B V     C        01:00:04:15 01:00:08:02 01:02:03:21 01:02:06:05 
M2   Z095_25B       035.8                01:00:04:15 
* FROM CLIP NAME:  Z095_25B (LAY4) (35.76 FPS)
000033  Z095_TON V     C        01:00:08:15 01:00:10:19 01:02:06:05 01:02:08:09 
* FROM CLIP NAME:  Z095_25A (LAY7)
000034  Z095_26. V     C        01:00:04:13 01:00:05:09 01:02:08:09 01:02:09:05 
* FROM CLIP NAME:  Z095_26 (LAY7)
000035  Z095_27A V     C        01:00:05:04 01:00:08:13 01:02:09:05 01:02:12:14 
* FROM CLIP NAME:  Z095_27A (LAY1)
000036  Z095_28J V     C        01:00:04:15 01:00:06:13 01:02:12:14 01:02:14:12 
* FROM CLIP NAME:  Z095_28J (LAY4)
000037  Z095_28J V     C        01:00:06:13 01:00:07:10 01:02:14:12 01:02:14:23 
M2   Z095_28J       048.0                01:00:06:13 
* FROM CLIP NAME:  Z095_28J (LAY4) (48.00 FPS)
000038  Z095_28J V     C        01:00:07:10 01:00:10:03 01:02:14:23 01:02:17:16 
* FROM CLIP NAME:  Z095_28J (LAY4)
000039  Z095_29B V     C        01:00:04:15 01:00:07:20 01:02:17:16 01:02:20:06 
M2   Z095_29B       030.0                01:00:04:15 
* FROM CLIP NAME:  Z095_29B (LAY5) (30.00 FPS)
000040  Z095_29B V     C        01:00:07:20 01:00:10:12 01:02:20:06 01:02:21:15 
M2   Z095_29B       047.8                01:00:07:20 
* FROM CLIP NAME:  Z095_29B (LAY5) (47.81 FPS)
000041  Z095_29B V     C        01:00:14:04 01:00:16:13 01:02:21:15 01:02:24:00 
* FROM CLIP NAME:  Z095_29B (LAY5)
000042  Z095_29B V     C        01:00:16:20 01:00:16:23 01:02:24:00 01:02:24:03 
* FROM CLIP NAME:  Z095_29B (LAY5)
000043  Z095_TON V     C        01:00:04:09 01:00:05:13 01:02:24:03 01:02:25:07 
* FROM CLIP NAME:  Z095_32 (LAY8)
000044  Z095_33A V     C        01:00:06:06 01:00:06:07 01:02:25:07 01:02:26:22 
M2   Z095_33A       000.0                01:00:06:06 
* FROM CLIP NAME:  Z095_33A (LAY1) FF 
* * FREEZE FRAME
000045  Z095_TON V     C        01:00:04:06 01:00:04:22 01:02:26:22 01:02:27:14 
* FROM CLIP NAME:  Z095_34 (LAY6)
000046  Z095_TON V     C        01:00:04:22 01:00:04:23 01:02:27:14 01:02:27:21 
M2   Z095_TON       000.0                01:00:04:22 
* FROM CLIP NAME:  Z095_34 (LAY6) FF 
* * FREEZE FRAME
000047  Z095_35A V     C        01:00:07:21 01:00:07:22 01:02:27:21 01:02:28:07 
M2   Z095_35A       000.0                01:00:07:21 
* FROM CLIP NAME:  Z095_35A (LAY1) FF 
* * FREEZE FRAME
000048  Z095_35A V     C        01:00:07:22 01:00:08:17 01:02:28:07 01:02:29:20 
M2   Z095_35A       012.0                01:00:07:22 
* FROM CLIP NAME:  Z095_35A (LAY1) (12.00 FPS)
000049  Z095_35A V     C        01:00:08:17 01:00:09:15 01:02:29:20 01:02:30:18 
* FROM CLIP NAME:  Z095_35A (LAY1)
000050  Z095_36A V     C        01:00:04:13 01:00:05:16 01:02:30:18 01:02:31:21 
* FROM CLIP NAME:  Z095_36A (LAY1)
000051  Z095_37A V     C        01:00:10:13 01:00:12:00 01:02:31:21 01:02:33:08 
* FROM CLIP NAME:  Z095_37A (LAY1)
000052  Z095_38C V     C        01:01:39:17 01:01:47:04 01:02:33:08 01:02:40:19 
* FROM CLIP NAME:  Z095_38C (LAY1)
000053  Z095_39B V     C        01:01:47:05 01:01:50:04 01:02:40:19 01:02:43:18 
* FROM CLIP NAME:  Z095_39B (LAY1)
000054  Z095_40D V     C        01:01:49:23 01:01:50:00 01:02:43:18 01:02:47:04 
M2   Z095_40D       000.0                01:01:49:23 
* FROM CLIP NAME:  Z095_40D (LAY2) FF 
* * FREEZE FRAME
000055  Z095_41C V     C        01:01:53:10 01:01:54:09 01:02:47:04 01:02:48:03 
* FROM CLIP NAME:  Z095_41C (LAY1)
000056  Z095_42B V     C        01:01:54:08 01:01:57:12 01:02:48:03 01:02:51:07 
* FROM CLIP NAME:  Z095_42B (LAY2)
000057  Z095_43B V     C        01:02:03:12 01:02:03:13 01:02:51:07 01:02:53:11 
M2   Z095_43B       000.0                01:02:03:12 
* FROM CLIP NAME:  Z095_43B (LAY1) FF 
* * FREEZE FRAME
000058  Z095_42B V     C        01:01:59:16 01:02:03:13 01:02:53:11 01:02:57:08 
* FROM CLIP NAME:  Z095_42B (LAY2)
000059  Z095_43B V     C        01:02:03:13 01:02:05:05 01:02:57:08 01:02:59:00 
* FROM CLIP NAME:  Z095_43B (LAY1)
000060  Z095_44B V     C        01:02:05:05 01:02:05:13 01:02:59:00 01:02:59:08 
* FROM CLIP NAME:  Z095_44B (LAY2)
000061  Z095_44B V     C        01:02:05:20 01:02:06:22 01:02:59:08 01:03:00:10 
* FROM CLIP NAME:  Z095_44B (LAY2)
000062  Z095_44B V     C        01:02:06:22 01:02:06:22 01:03:00:10 01:03:00:10 
000062  095_TONY V     D    026 01:00:01:16 01:00:02:18 01:03:00:10 01:03:01:12 
* FROM CLIP NAME:  Z095_44B (LAY2) 
* TO CLIP NAME:  LG_BLACK239 (REN2)
000063  095_TONY V     C        01:00:02:18 01:00:03:06 01:03:01:12 01:03:02:00 
* FROM CLIP NAME:  LG_BLACK239 (REN2)
000064  Z095_800 V     C        01:00:01:12 01:00:10:16 01:03:02:00 01:03:11:04 
* FROM CLIP NAME:  Z095_800 (REN2)
000065  035_INCR V     C        01:00:04:07 01:00:06:02 01:03:11:04 01:03:12:23 
* FROM CLIP NAME:  Z035_201F (LAY5)
000066  035_INCR V     C        01:00:06:05 01:00:08:00 01:03:12:23 01:03:14:18 
* FROM CLIP NAME:  Z035_202B (LAY4)
000067  035_INCR V     C        01:00:07:18 01:00:08:09 01:03:14:18 01:03:15:09 
* FROM CLIP NAME:  Z035_201H (LAY1)
000068  035_INCR V     C        01:00:07:23 01:00:08:08 01:03:15:09 01:03:15:18 
* FROM CLIP NAME:  Z035_202E (LAY10)
000069  035_INCR V     C        01:00:09:07 01:00:10:12 01:03:15:18 01:03:16:23 
* FROM CLIP NAME:  Z035_205D (LAY8)
000070  035_INCR V     C        01:00:10:10 01:00:12:04 01:03:16:23 01:03:18:17 
* FROM CLIP NAME:  Z035_206C (LAY3)
000071  035_INCR V     C        01:00:12:01 01:00:14:05 01:03:18:17 01:03:20:21 
* FROM CLIP NAME:  Z035_207B (LAY4)
000072  035_INCR V     C        01:00:03:18 01:00:12:03 01:03:20:21 01:03:29:06 
* FROM CLIP NAME:  Z035_208B (LAY4)
000073  035_INCR V     C        01:00:03:23 01:00:06:07 01:03:29:06 01:03:31:14 
* FROM CLIP NAME:  Z035_210M (LAY1)
000074  Z035_212 V     C        01:00:06:04 01:00:09:02 01:03:31:14 01:03:34:12 
* FROM CLIP NAME:  Z035_212K (LAY5)
000075  Z035_212 V     C        01:00:09:05 01:00:10:03 01:03:34:12 01:03:35:10 
* FROM CLIP NAME:  Z035_212M (LAY10)
000076  Z035_213 V     C        01:00:09:16 01:00:11:11 01:03:35:10 01:03:37:05 
* FROM CLIP NAME:  Z035_213F (LAY11)
000077  035_INCR V     C        01:00:04:05 01:00:07:14 01:03:37:05 01:03:40:14 
* FROM CLIP NAME:  Z035_214 (LAY7)
000078  035_INCR V     C        01:00:04:05 01:00:07:08 01:03:40:14 01:03:43:17 
* FROM CLIP NAME:  Z035_215G (LAY4)
000079  Z035_216 V     C        01:00:08:08 01:00:12:01 01:03:43:17 01:03:47:10 
* FROM CLIP NAME:  Z035_216F (LAY6)
000080  035_INCR V     C        01:00:10:17 01:00:13:09 01:03:47:10 01:03:50:02 
* FROM CLIP NAME:  Z035_217A (LAY7)
000081  035_INCR V     C        01:00:13:09 01:00:15:15 01:03:50:02 01:03:52:08 
* FROM CLIP NAME:  Z035_218 (LAY8)
000082  035_INCR V     C        01:00:15:17 01:00:17:16 01:03:52:08 01:03:54:07 
* FROM CLIP NAME:  Z035_220 (LAY5)
000083  035_INCR V     C        01:00:17:12 01:00:18:19 01:03:54:07 01:03:55:14 
* FROM CLIP NAME:  Z035_221 (LAY3)
000084  035_INCR V     C        01:00:18:20 01:00:21:04 01:03:55:14 01:03:57:22 
* FROM CLIP NAME:  Z035_222B (LAY7)
000085  035_INCR V     C        01:00:21:04 01:00:25:19 01:03:57:22 01:04:02:13 
* FROM CLIP NAME:  Z035_223D (LAY6)
000086  035_INCR V     C        01:00:24:20 01:00:27:20 01:04:02:13 01:04:05:13 
* FROM CLIP NAME:  Z035_225 (LAY7)
000087  Z035_226 V     C        01:00:27:21 01:00:31:23 01:04:05:13 01:04:09:15 
* FROM CLIP NAME:  Z035_226C (LAY9)
000088  035_INCR V     C        01:00:04:15 01:00:07:02 01:04:09:15 01:04:12:02 
* FROM CLIP NAME:  Z035_227 (LAY7)
000089  035_INCR V     C        01:00:05:05 01:00:10:03 01:04:12:02 01:04:17:00 
* FROM CLIP NAME:  Z035_228 (LAY5)
000090  035_INCR V     C        01:00:05:21 01:00:08:09 01:04:17:00 01:04:19:12 
* FROM CLIP NAME:  Z035_229B (LAY3)
000091  035_INCR V     C        01:00:04:05 01:00:05:16 01:04:19:12 01:04:20:23 
* FROM CLIP NAME:  Z035_230 (LAY6)
000092  035_INCR V     C        01:00:04:07 01:00:05:12 01:04:20:23 01:04:22:04 
* FROM CLIP NAME:  Z035_231 (LAY5)
000093  035_INCR V     C        01:00:04:05 01:00:05:03 01:04:22:04 01:04:23:02 
* FROM CLIP NAME:  Z035_232 (LAY9)
000094  035_INCR V     C        01:00:04:09 01:00:06:13 01:04:23:02 01:04:25:06 
* FROM CLIP NAME:  Z035_233 (LAY7)
000095  Z035_234 V     C        01:00:04:07 01:00:05:13 01:04:25:06 01:04:26:12 
* FROM CLIP NAME:  Z035_234 (LAY14)
000096  035_INCR V     C        01:00:04:12 01:00:06:11 01:04:26:12 01:04:28:11 
* FROM CLIP NAME:  Z035_235 (LAY7)
000097  035_INCR V     C        01:00:04:15 01:00:05:02 01:04:28:11 01:04:28:22 
* FROM CLIP NAME:  Z035_236 (LAY8)
000098  035_INCR V     C        01:00:04:11 01:00:04:23 01:04:28:22 01:04:29:10 
* FROM CLIP NAME:  Z035_237 (LAY7)
000099  035_INCR V     C        01:00:04:13 01:00:05:19 01:04:29:10 01:04:30:16 
* FROM CLIP NAME:  Z035_238 (LAY6)
000100  035_INCR V     C        01:00:04:17 01:00:05:06 01:04:30:16 01:04:31:05 
* FROM CLIP NAME:  Z035_239A (LAY1)
000101  035_INCR V     C        01:00:04:09 01:00:05:05 01:04:31:05 01:04:32:01 
* FROM CLIP NAME:  Z035_240A (LAY1)
000102  035_INCR V     C        01:00:05:23 01:00:06:17 01:04:32:01 01:04:32:19 
* FROM CLIP NAME:  Z035_241C (LAY2)
000103  035_INCR V     C        01:00:04:19 01:00:06:05 01:04:32:19 01:04:34:05 
* FROM CLIP NAME:  Z035_242 (LAY13)
000104  035_INCR V     C        01:00:04:05 01:00:06:22 01:04:34:05 01:04:36:22 
* FROM CLIP NAME:  Z035_243 (LAY13)
000105  035_INCR V     C        01:00:05:11 01:00:06:14 01:04:36:22 01:04:38:01 
* FROM CLIP NAME:  Z035_244 (LAY11)
000106  035_INCR V     C        01:00:04:05 01:00:05:14 01:04:38:01 01:04:39:10 
* FROM CLIP NAME:  Z035_245A (LAY8)
000107  035_INCR V     C        01:00:04:17 01:00:08:15 01:04:39:10 01:04:43:08 
* FROM CLIP NAME:  Z035_248B (LAY8)
000108  Z035_245 V     C        01:00:04:21 01:00:08:03 01:04:43:08 01:04:46:14 
* FROM CLIP NAME:  Z035_245D (LAY6)
000109  Z035_245 V     C        01:00:05:23 01:00:09:09 01:04:46:14 01:04:50:00 
* FROM CLIP NAME:  Z035_245F (LAY4)
000110  035_INCR V     C        01:00:07:07 01:00:09:10 01:04:50:00 01:04:52:03 
* FROM CLIP NAME:  Z035_249 (LAY4)
000111  035_INCR V     C        01:00:11:04 01:00:13:17 01:04:52:03 01:04:54:16 
* FROM CLIP NAME:  Z035_247A (LAY10)
000112  035_INCR V     C        01:00:02:05 01:00:04:13 01:04:54:16 01:04:57:00 
* FROM CLIP NAME:  Z035_251A (LAY4)
000113  OREH_044 V     C        01:00:20:01 01:00:20:09 01:04:57:00 01:04:57:08 
* FROM CLIP NAME:  OREH_044281
000114  OREH_044 V     C        01:00:20:03 01:00:20:11 01:04:57:08 01:04:57:16 
* FROM CLIP NAME:  OREH_044282
000115  OREH_044 V     C        01:00:20:03 01:00:20:19 01:04:57:16 01:04:58:08 
* FROM CLIP NAME:  OREH_044283
000116  OREH_044 V     C        01:00:20:01 01:00:20:04 01:04:58:08 01:04:58:11 
* FROM CLIP NAME:  OREH_044284
000117  OREH_044 V     C        01:00:20:01 01:00:20:05 01:04:58:11 01:04:58:15 
* FROM CLIP NAME:  OREH_044285
000118  OREH_044 V     C        01:00:20:01 01:00:20:06 01:04:58:15 01:04:58:20 
* FROM CLIP NAME:  OREH_044286
000119  OREH_044 V     C        01:00:20:01 01:00:20:14 01:04:58:20 01:04:59:09 
* FROM CLIP NAME:  OREH_044287
000120  OREH_044 V     C        01:00:20:11 01:00:22:09 01:04:59:09 01:05:01:07 
* FROM CLIP NAME:  OREH_044288
000121  OREH_044 V     C        01:00:20:16 01:00:21:06 01:05:01:07 01:05:01:21 
* FROM CLIP NAME:  OREH_044289
000122  OREH_044 V     C        01:00:20:10 01:00:20:15 01:05:01:21 01:05:02:02 
* FROM CLIP NAME:  OREH_044291
000123  OREH_044 V     C        01:00:20:03 01:00:20:13 01:05:02:02 01:05:02:12 
* FROM CLIP NAME:  OREH_044292
000124  OREH_044 V     C        01:00:20:01 01:00:20:05 01:05:02:12 01:05:02:16 
* FROM CLIP NAME:  OREH_044293
000125  OREH_044 V     C        01:00:20:01 01:00:20:06 01:05:02:16 01:05:02:21 
* FROM CLIP NAME:  OREH_044294
000126  OREH_044 V     C        01:00:20:03 01:00:20:07 01:05:02:21 01:05:03:01 
* FROM CLIP NAME:  OREH_044295
000127  OREH_044 V     C        01:00:19:17 01:00:20:09 01:05:03:01 01:05:03:17 
* FROM CLIP NAME:  OREH_044296
000128  035_INCR V     C        01:00:18:11 01:00:19:19 01:05:03:17 01:05:05:01 
* FROM CLIP NAME:  OREH_016395
000129  035_INCR V     C        01:00:20:05 01:00:20:13 01:05:05:01 01:05:05:09 
* FROM CLIP NAME:  OREH_016397
000130  035_INCR V     C        01:00:20:01 01:00:20:09 01:05:05:09 01:05:05:17 
* FROM CLIP NAME:  OREH_026810
000131  035_INCR V     C        01:00:20:01 01:00:20:09 01:05:05:17 01:05:06:01 
* FROM CLIP NAME:  OREH_026811
000132  035_INCR V     C        01:00:20:01 01:00:20:10 01:05:06:01 01:05:06:10 
* FROM CLIP NAME:  OREH_026812
000133  Z038_1.L V     C        01:00:04:05 01:00:05:14 01:05:06:10 01:05:07:19 
* FROM CLIP NAME:  Z038_1 (LAY21)
000134  Z038_3A. V     C        01:00:03:13 01:00:08:21 01:05:07:19 01:05:13:03 
* FROM CLIP NAME:  Z038_3A (LAY7)
000135  Z038_4A. V     C        01:00:07:17 01:00:08:23 01:05:13:03 01:05:14:09 
* FROM CLIP NAME:  Z038_4A (LAY6)
000136  Z038_4A. V     C        01:00:09:10 01:00:09:21 01:05:14:09 01:05:14:20 
* FROM CLIP NAME:  Z038_4A (LAY6)
000137  Z038_6D. V     C        01:00:04:16 01:00:05:20 01:05:14:20 01:05:16:00 
* FROM CLIP NAME:  Z038_6D (LAY4)
000138  Z038_7B. V     C        01:00:04:23 01:00:06:19 01:05:16:00 01:05:17:20 
* FROM CLIP NAME:  Z038_7B (LAY2)
000139  Z038_10. V     C        01:00:03:04 01:00:05:04 01:05:17:20 01:05:19:20 
* FROM CLIP NAME:  Z038_10 (LAY26)
000140  Z038_11. V     C        01:00:03:14 01:00:05:01 01:05:19:20 01:05:21:07 
* FROM CLIP NAME:  Z038_11 (LAY18)
000141  Z038_12. V     C        01:00:03:13 01:00:04:23 01:05:21:07 01:05:22:17 
* FROM CLIP NAME:  Z038_12 (LAY14)
000142  Z038_13. V     C        01:00:04:05 01:00:05:12 01:05:22:17 01:05:24:00 
* FROM CLIP NAME:  Z038_13 (LAY5)
000143  Z038_14B V     C        01:00:04:05 01:00:05:23 01:05:24:00 01:05:25:18 
* FROM CLIP NAME:  Z038_14B (LAY7)
000144  Z038_15. V     C        01:00:06:10 01:00:08:19 01:05:25:18 01:05:28:03 
* FROM CLIP NAME:  Z038_15 (LAY11)
000145  Z038_14D V     C        01:00:09:05 01:00:11:05 01:05:28:03 01:05:29:12 
M2   Z038_14D       035.9                01:00:09:05 
* FROM CLIP NAME:  Z038_14D (LAY7) (35.91 FPS)
000146  Z038_14D V     C        01:00:11:05 01:00:11:16 01:05:29:12 01:05:29:23 
* FROM CLIP NAME:  Z038_14D (LAY7)
000147  Z038_14D V     C        01:00:11:16 01:00:15:20 01:05:29:23 01:05:32:18 
M2   Z038_14D       035.9                01:00:11:16 
* FROM CLIP NAME:  Z038_14D (LAY7) (35.91 FPS)
000148  Z038_17P V     C        01:00:09:16 01:00:12:03 01:05:32:18 01:05:35:05 
* FROM CLIP NAME:  Z038_17P (LAY6)
000149  Z038_17Q V     C        01:00:19:01 01:00:21:12 01:05:35:05 01:05:37:16 
* FROM CLIP NAME:  Z038_17Q (LAY3)
000150  Z038_20N V     C        01:00:08:13 01:00:10:12 01:05:37:16 01:05:39:15 
* FROM CLIP NAME:  Z038_20N (LAY10)
000151  Z038_22E V     C        01:00:04:05 01:00:05:06 01:05:39:15 01:05:40:16 
* FROM CLIP NAME:  Z038_22E (LAY10)
000152  Z038_23F V     C        01:00:04:02 01:00:06:05 01:05:40:16 01:05:42:19 
* FROM CLIP NAME:  Z038_23F (LAY14)
000153  Z038_24B V     C        01:00:04:05 01:00:05:23 01:05:42:19 01:05:44:00 
M2   Z038_24B       035.8                01:00:04:05 
* FROM CLIP NAME:  Z038_24B (LAY1) (35.82 FPS)
000154  Z038_24B V     C        01:00:05:22 01:00:07:01 01:05:44:00 01:05:45:03 
* FROM CLIP NAME:  Z038_24B (LAY1)
000155  Z038_24B V     C        01:00:07:01 01:00:08:08 01:05:45:03 01:05:45:19 
M2   Z038_24B       048.0                01:00:07:01 
* FROM CLIP NAME:  Z038_24B (LAY1) (48.00 FPS)
000156  Z038_24B V     C        01:00:08:07 01:00:08:08 01:05:45:19 01:05:46:03 
M2   Z038_24B       000.0                01:00:08:07 
* FROM CLIP NAME:  Z038_24B (LAY1) FF 
* * FREEZE FRAME
000157  Z038_25A V     C        01:00:08:16 01:00:11:23 01:05:46:03 01:05:49:10 
* FROM CLIP NAME:  Z038_25A (LAY2)
000158  Z038_26A V     C        01:00:04:09 01:00:07:23 01:05:49:10 01:05:51:20 
M2   Z038_26A       035.8                01:00:04:09 
* FROM CLIP NAME:  Z038_26A (LAY3) (35.82 FPS)
000159  Z038_23F V     K B      01:00:14:06 01:00:14:16 01:05:51:20 01:05:52:06 
000159  Z038_23F V     K    000 01:00:14:06 01:00:14:16 01:05:51:20 01:05:52:06 
* FROM CLIP NAME:  Z038_23F (LAY6) 
* KEY CLIP NAME:  Z038_23F (LAY6)
000160  Z038_27B V     C        01:00:04:10 01:00:07:04 01:05:52:06 01:05:55:00 
* FROM CLIP NAME:  Z038_27B (LAY3)
000161  Z038_23F V     C        01:00:17:10 01:00:19:02 01:05:55:00 01:05:56:16 
* FROM CLIP NAME:  Z038_23F (LAY6)
000162  Z038_30C V     C        01:00:05:03 01:00:06:20 01:05:56:16 01:05:58:09 
* FROM CLIP NAME:  Z038_30C (LAY2)
000163  Z038_30A V     C        01:00:06:16 01:00:07:20 01:05:58:09 01:05:59:13 
* FROM CLIP NAME:  Z038_30A (LAY4)
000164  Z038_30C V     C        01:00:07:15 01:00:08:17 01:05:59:13 01:06:00:15 
* FROM CLIP NAME:  Z038_30C (LAY2)
000165  Z038_31. V     C        01:00:09:21 01:00:11:16 01:06:00:15 01:06:02:10 
* FROM CLIP NAME:  Z038_31 (LAY7)
000166  Z038_32A V     C        01:00:11:06 01:00:13:11 01:06:02:10 01:06:04:15 
* FROM CLIP NAME:  Z038_32A (LAY4)
000167  Z038_ROU V     C        01:00:06:11 01:00:07:11 01:06:04:15 01:06:05:15 
* FROM CLIP NAME:  Z038_33A (LAY2)
000168  Z038_ROU V     C        01:00:08:15 01:00:11:04 01:06:05:15 01:06:08:04 
* FROM CLIP NAME:  Z038_35B (LAY1)
000169  Z038_37B V     C        01:00:11:11 01:00:12:06 01:06:08:04 01:06:08:23 
* FROM CLIP NAME:  Z038_37B (LAY1)
000170  Z038_38C V     C        01:00:12:08 01:00:13:04 01:06:08:23 01:06:09:19 
* FROM CLIP NAME:  Z038_38C (LAY1)
000171  Z038_39A V     C        01:00:12:19 01:00:13:15 01:06:09:19 01:06:10:15 
* FROM CLIP NAME:  Z038_39A (LAY2)
000172  Z038_40. V     C        01:00:04:07 01:00:05:19 01:06:10:15 01:06:12:03 
* FROM CLIP NAME:  Z038_40 (LAY6)
000173  Z038_41B V     C        01:00:04:21 01:00:05:15 01:06:12:03 01:06:12:21 
* FROM CLIP NAME:  Z038_41B (LAY3)
000174  Z038_43G V     C        01:00:13:12 01:00:14:12 01:06:12:21 01:06:13:21 
* FROM CLIP NAME:  Z038_43G (LAY4)
000175  Z038_43J V     C        01:00:14:03 01:00:15:08 01:06:13:21 01:06:15:02 
* FROM CLIP NAME:  Z038_43J (LAY1)
000176  Z038_42D V     C        01:00:15:01 01:00:16:09 01:06:15:02 01:06:16:10 
* FROM CLIP NAME:  Z038_42D (LAY2)
000177  Z038_45A V     C        01:00:16:02 01:00:17:04 01:06:16:10 01:06:17:12 
* FROM CLIP NAME:  Z038_45A (LAY1)
000178  Z038_46H V     C        01:00:16:10 01:00:19:21 01:06:17:12 01:06:19:06 
M2   Z038_46H       047.7                01:00:16:10 
* FROM CLIP NAME:  Z038_46H (LAY1) (47.71 FPS)
000179  Z038_46J V     C        01:00:18:08 01:00:21:15 01:06:19:06 01:06:21:11 
M2   Z038_46J       036.0                01:00:18:08 
* FROM CLIP NAME:  Z038_46J (LAY1) (36.00 FPS)
000180  Z038_59D V     C        01:00:05:09 01:00:07:13 01:06:21:11 01:06:23:15 
* FROM CLIP NAME:  Z038_59D (LAY3)
000181  Z038_60E V     C        01:00:09:03 01:00:10:19 01:06:23:15 01:06:24:18 
M2   Z038_60E       036.0                01:00:09:03 
* FROM CLIP NAME:  Z038_60E (LAY3) (36.00 FPS)
000182  Z038_60G V     C        01:00:10:16 01:00:12:04 01:06:24:18 01:06:25:18 
M2   Z038_60G       035.8                01:00:10:16 
* FROM CLIP NAME:  Z038_60G (LAY1) (35.84 FPS)
000183  Z038_60G V     C        01:00:12:04 01:00:14:01 01:06:25:18 01:06:27:15 
* FROM CLIP NAME:  Z038_60G (LAY1)
000184  Z038_47. V     C        01:00:04:08 01:00:06:08 01:06:27:15 01:06:29:15 
* FROM CLIP NAME:  Z038_47 (LAY6)
000185  Z038_48A V     C        01:00:05:18 01:00:06:14 01:06:29:15 01:06:30:11 
* FROM CLIP NAME:  Z038_48A (LAY4)
000186  Z038_49. V     C        01:00:06:19 01:00:08:13 01:06:30:11 01:06:32:05 
* FROM CLIP NAME:  Z038_49 (LAY7)
000187  Z038_50. V     C        01:00:08:01 01:00:09:04 01:06:32:05 01:06:33:08 
* FROM CLIP NAME:  Z038_50 (LAY7)
000188  Z038_52. V     C        01:00:09:01 01:00:09:19 01:06:33:08 01:06:34:02 
* FROM CLIP NAME:  Z038_52 (LAY7)
000189  Z038_51. V     C        01:00:10:21 01:00:12:11 01:06:34:02 01:06:35:16 
* FROM CLIP NAME:  Z038_51 (LAY4)
000190  Z038_54. V     C        01:00:12:03 01:00:13:00 01:06:35:16 01:06:36:13 
* FROM CLIP NAME:  Z038_54 (LAY7)
000191  Z038_55. V     C        01:00:11:22 01:00:13:23 01:06:36:13 01:06:38:14 
* FROM CLIP NAME:  Z038_55 (LAY12)
000192  Z038_56. V     C        01:00:14:04 01:00:16:18 01:06:38:14 01:06:41:04 
* FROM CLIP NAME:  Z038_56 (LAY7)
000193  Z038_57A V     C        01:00:17:09 01:00:18:18 01:06:41:04 01:06:42:13 
* FROM CLIP NAME:  Z038_57A (LAY6)
000194  Z038_68E V     C        01:00:17:03 01:00:18:03 01:06:42:13 01:06:43:13 
* FROM CLIP NAME:  Z038_68E (LAY2)
000195  Z038_69B V     C        01:00:17:02 01:00:19:00 01:06:43:13 01:06:45:11 
* FROM CLIP NAME:  Z038_69B (LAY3)
000196  Z038_70. V     C        01:00:19:04 01:00:22:01 01:06:45:11 01:06:48:08 
* FROM CLIP NAME:  Z038_70 (LAY4)
000197  Z038_ROU V     C        01:00:22:03 01:00:24:18 01:06:48:08 01:06:50:23 
* FROM CLIP NAME:  Z038_71A (LAY2)
000198  Z038_72. V     C        01:00:24:18 01:00:25:21 01:06:50:23 01:06:52:02 
* FROM CLIP NAME:  Z038_72 (LAY8)
000199  Z038_73E V     C        01:00:04:07 01:00:04:23 01:06:52:02 01:06:52:18 
* FROM CLIP NAME:  Z038_73E (LAY3)
000200  Z038_73E V     C        01:00:04:23 01:00:06:04 01:06:52:18 01:06:53:09 
M2   Z038_73E       047.5                01:00:04:23 
* FROM CLIP NAME:  Z038_73E (LAY3) (47.53 FPS)
000201  Z038_73E V     C        01:00:06:05 01:00:07:06 01:06:53:09 01:06:54:10 
* FROM CLIP NAME:  Z038_73E (LAY3)
000202  Z038_75G V     C        01:00:06:07 01:00:09:11 01:06:54:10 01:06:57:14 
* FROM CLIP NAME:  Z038_75G (LAY1)
000203  Z038_ROU V     C        01:00:11:11 01:00:12:20 01:06:57:14 01:06:58:23 
* FROM CLIP NAME:  Z038_74A (LAY7)
000204  Z038_77A V     C        01:00:04:09 01:00:05:11 01:06:58:23 01:07:00:01 
* FROM CLIP NAME:  Z038_77A (LAY3)
000205  Z038_77A V     C        01:00:05:11 01:00:08:06 01:07:00:01 01:07:01:11 
M2   Z038_77A       048.0                01:00:05:11 
* FROM CLIP NAME:  Z038_77A (LAY3) (48.00 FPS)
000206  Z038_77A V     C        01:00:08:06 01:00:10:19 01:07:01:11 01:07:04:00 
* FROM CLIP NAME:  Z038_77A (LAY3)
000207  Z038_79. V     C        01:00:08:04 01:00:13:16 01:07:04:00 01:07:09:12 
* FROM CLIP NAME:  Z038_79 (LAY10)
000208  Z038_80B V     C        01:00:04:11 01:00:07:00 01:07:09:12 01:07:12:01 
* FROM CLIP NAME:  Z038_80B (LAY6)
000209  Z038_81A V     C        01:00:05:14 01:00:07:14 01:07:12:01 01:07:14:01 
* FROM CLIP NAME:  Z038_81A (LAY5)
000210  Z038_82A V     C        01:00:06:15 01:00:08:09 01:07:14:01 01:07:15:19 
* FROM CLIP NAME:  Z038_82A (LAY1)
000211  Z038_84C V     C        01:00:09:08 01:00:10:18 01:07:15:19 01:07:17:05 
* FROM CLIP NAME:  Z038_84C (LAY2)
000212  Z038_83E V     C        01:00:07:18 01:00:09:03 01:07:17:05 01:07:18:14 
* FROM CLIP NAME:  Z038_83E (LAY1)
000213  Z038_83E V     C        01:00:09:03 01:00:11:08 01:07:18:14 01:07:19:17 
M2   Z038_83E       048.0                01:00:09:03 
* FROM CLIP NAME:  Z038_83E (LAY1) (48.00 FPS)
000214  Z038_83E V     C        01:00:11:08 01:00:12:14 01:07:19:17 01:07:21:08 
M2   Z038_83E       018.9                01:00:11:08 
* FROM CLIP NAME:  Z038_83E (LAY1) (18.89 FPS)
000215  Z038_83G V     C        01:00:11:08 01:00:12:02 01:07:21:08 01:07:22:02 
* FROM CLIP NAME:  Z038_83G (LAY2)
000216  Z038_85J V     C        01:00:10:12 01:00:12:14 01:07:22:02 01:07:24:04 
* FROM CLIP NAME:  Z038_85J (LAY5)
000217  Z038_85J V     C        01:00:12:15 01:00:13:20 01:07:24:04 01:07:24:19 
M2   Z038_85J       048.0                01:00:12:15 
* FROM CLIP NAME:  Z038_85J (LAY5) (48.00 FPS)
000218  Z038_85J V     C        01:00:13:21 01:00:14:16 01:07:24:19 01:07:25:14 
* FROM CLIP NAME:  Z038_85J (LAY5)
000219  Z038_ROU V     C        01:00:05:07 01:00:06:07 01:07:25:14 01:07:26:14 
* FROM CLIP NAME:  Z038_93 (LAY6)
000220  Z038_ROU V     C        01:00:06:05 01:00:07:06 01:07:26:14 01:07:27:15 
* FROM CLIP NAME:  Z038_94 (LAY7)
000221  Z038_ROU V     C        01:00:07:06 01:00:10:10 01:07:27:15 01:07:30:09 
M2   Z038_ROU       028.0                01:00:07:06 
* FROM CLIP NAME:  Z038_94 (LAY7)
000222  Z038_ROU V     C        01:00:09:10 01:00:10:22 01:07:30:09 01:07:31:21 
* FROM CLIP NAME:  Z038_94A (LAY8)
000223  Z038_ROU V     C        01:00:14:15 01:00:15:22 01:07:31:21 01:07:33:04 
* FROM CLIP NAME:  Z038_88 (LAY4)
000224  Z038_85H V     C        01:00:16:01 01:00:18:00 01:07:33:04 01:07:35:03 
* FROM CLIP NAME:  Z038_85H (LAY2)
000225  Z038_90A V     C        01:00:17:13 01:00:18:11 01:07:35:03 01:07:36:01 
* FROM CLIP NAME:  Z038_90A (LAY5)
000226  Z038_90B V     C        01:00:18:09 01:00:20:05 01:07:36:01 01:07:37:21 
* FROM CLIP NAME:  Z038_90B (LAY6)
000227  Z038_ROU V     C        01:00:04:23 01:00:06:19 01:07:37:21 01:07:39:17 
* FROM CLIP NAME:  Z038_92E (LAY6)
000228  Z038_ROU V     C        01:00:10:03 01:00:11:15 01:07:39:17 01:07:41:05 
* FROM CLIP NAME:  Z038_92E (LAY6)
000229  Z038_ROU V     C        01:00:12:10 01:00:13:09 01:07:41:05 01:07:42:04 
* FROM CLIP NAME:  Z038_95B (LAY1)
000230  Z038_ROU V     C        01:00:14:03 01:00:16:13 01:07:42:04 01:07:44:14 
* FROM CLIP NAME:  Z038_97C (LAY1)
000231  Z038_92H V     C        01:00:16:02 01:00:16:16 01:07:44:14 01:07:45:00 
M2   Z038_92H       036.3                01:00:16:02 
* FROM CLIP NAME:  Z038_92H (LAY1) (36.26 FPS)
000232  Z038_92H V     C        01:00:16:21 01:00:18:00 01:07:45:00 01:07:45:18 
M2   Z038_92H       036.3                01:00:16:21 
* FROM CLIP NAME:  Z038_92H (LAY1) (36.26 FPS)
000233  Z038_97D V     C        01:00:17:18 01:00:18:10 01:07:45:18 01:07:46:10 
* FROM CLIP NAME:  Z038_97D (LAY2)
000234  Z038_ROU V     C        01:00:17:08 01:00:18:10 01:07:46:10 01:07:47:12 
* FROM CLIP NAME:  Z038_101 (LAY6)
000235  Z038_102 V     C        01:00:03:23 01:00:05:03 01:07:47:12 01:07:48:07 
M2   Z038_102       036.4                01:00:03:23 
* FROM CLIP NAME:  Z038_102F (LAY2) (36.44 FPS)
000236  Z038_ROU V     C        01:00:17:12 01:00:20:21 01:07:48:07 01:07:51:16 
* FROM CLIP NAME:  Z038_94A (LAY8)
000237  Z038_104 V     C        01:00:22:15 01:00:24:04 01:07:51:16 01:07:53:05 
* FROM CLIP NAME:  Z038_104B (LAY3)
000238  Z038_104 V     C        01:00:24:00 01:00:24:21 01:07:53:05 01:07:54:02 
* FROM CLIP NAME:  Z038_104 (LAY14)
000239  Z038_104 V     C        01:00:24:21 01:00:26:04 01:07:54:02 01:07:54:23 
M2   Z038_104       036.2                01:00:24:21 
* FROM CLIP NAME:  Z038_104 (LAY14) (36.23 FPS)
000240  Z038_ROU V     C        01:00:04:01 01:00:08:11 01:07:54:23 01:07:59:09 
* FROM CLIP NAME:  Z038_106C (LAY2)
000241  Z038_ROU V     C        01:00:08:18 01:00:09:10 01:07:59:09 01:08:00:01 
* FROM CLIP NAME:  Z038_106C (LAY2)
000242  Z038_108 V     C        01:00:09:07 01:00:09:08 01:08:00:01 01:08:01:00 
M2   Z038_108       000.0                01:00:09:07 
* FROM CLIP NAME:  Z038_108A (LAY5) FF 
* * FREEZE FRAME
000243  Z038_108 V     C        01:00:09:08 01:00:13:20 01:08:01:00 01:08:04:00 
M2   Z038_108       036.1                01:00:09:08 
* FROM CLIP NAME:  Z038_108A (LAY5) (36.12 FPS)
000244  OREH_043 V     C        01:00:20:01 01:00:20:08 01:08:04:00 01:08:04:07 
* FROM CLIP NAME:  OREH_043009
000245  OREH_043 V     C        01:00:20:07 01:00:20:13 01:08:04:07 01:08:04:13 
* FROM CLIP NAME:  OREH_043010
000246  OREH_043 V     C        01:00:20:01 01:00:20:07 01:08:04:13 01:08:04:19 
* FROM CLIP NAME:  OREH_043011
000247  OREH_043 V     C        01:00:20:07 01:00:20:15 01:08:04:19 01:08:05:03 
* FROM CLIP NAME:  OREH_043012
000248  OREH_043 V     C        01:00:20:03 01:00:20:11 01:08:05:03 01:08:05:11 
* FROM CLIP NAME:  OREH_043013
000249  OREH_043 V     C        01:00:20:04 01:00:20:13 01:08:05:11 01:08:05:20 
* FROM CLIP NAME:  OREH_043014
000250  OREH_043 V     C        01:00:20:02 01:00:20:13 01:08:05:20 01:08:06:07 
* FROM CLIP NAME:  OREH_043016
000251  OREH_043 V     C        01:00:19:20 01:00:20:09 01:08:06:07 01:08:06:20 
* FROM CLIP NAME:  OREH_043018
000252  OREH_043 V     C        01:00:19:10 01:00:19:20 01:08:06:20 01:08:07:06 
* FROM CLIP NAME:  OREH_043020
000253  OREH_043 V     C        01:00:20:01 01:00:20:13 01:08:07:06 01:08:07:18 
* FROM CLIP NAME:  OREH_043025
000254  OREH_043 V     C        01:00:20:01 01:00:20:07 01:08:07:18 01:08:08:00 
* FROM CLIP NAME:  OREH_043026
000255  OREH_043 V     C        01:00:20:08 01:00:20:13 01:08:08:00 01:08:08:05 
* FROM CLIP NAME:  OREH_043027
000256  OREH_043 V     C        01:00:20:01 01:00:20:09 01:08:08:05 01:08:08:13 
* FROM CLIP NAME:  OREH_043028
000257  OREH_043 V     C        01:00:19:21 01:00:20:13 01:08:08:13 01:08:09:05 
* FROM CLIP NAME:  OREH_043029
000258  OREH_043 V     C        01:00:20:01 01:00:20:13 01:08:09:05 01:08:09:17 
* FROM CLIP NAME:  OREH_043030
000259  OREH_043 V     C        01:00:20:05 01:00:20:13 01:08:09:17 01:08:10:01 
* FROM CLIP NAME:  OREH_043031
000260  OREH_043 V     C        01:00:20:12 01:00:20:21 01:08:10:01 01:08:10:10 
* FROM CLIP NAME:  OREH_043033
000261  OREH_043 V     C        01:00:19:10 01:00:20:09 01:08:10:10 01:08:11:09 
* FROM CLIP NAME:  OREH_043034
000262  OREH_043 V     C        01:00:20:01 01:00:20:17 01:08:11:09 01:08:12:01 
* FROM CLIP NAME:  OREH_043035
000263  OREH_043 V     C        01:00:20:21 01:00:21:17 01:08:12:01 01:08:12:21 
* FROM CLIP NAME:  OREH_043036
000264  OREH_043 V     C        01:00:20:13 01:00:21:09 01:08:12:21 01:08:13:17 
* FROM CLIP NAME:  OREH_043039
000265  OREH_043 V     C        01:00:20:13 01:00:22:05 01:08:13:17 01:08:15:09 
* FROM CLIP NAME:  OREH_043040
000266  OREH_043 V     C        01:00:20:10 01:00:23:21 01:08:15:09 01:08:18:20 
* FROM CLIP NAME:  OREH_043038
000267  OREH_041 V     C        01:00:20:01 01:00:21:12 01:08:18:20 01:08:20:07 
* FROM CLIP NAME:  OREH_041336
000268  OREH_041 V     C        01:00:20:08 01:00:20:13 01:08:20:07 01:08:20:12 
* FROM CLIP NAME:  OREH_041337
000269  OREH_041 V     C        01:00:21:06 01:00:23:07 01:08:20:12 01:08:22:13 
* FROM CLIP NAME:  OREH_041336
000270  OREH_041 V     C        01:00:22:02 01:00:24:02 01:08:22:13 01:08:24:13 
* FROM CLIP NAME:  OREH_041338
000271  OREH_041 V     C        01:00:20:02 01:00:20:10 01:08:24:13 01:08:24:21 
* FROM CLIP NAME:  OREH_041338
000272  OREH_041 V     C        01:00:20:03 01:00:20:13 01:08:24:21 01:08:25:07 
* FROM CLIP NAME:  OREH_041340
000273  OREH_041 V     C        01:00:20:03 01:00:20:13 01:08:25:07 01:08:25:17 
* FROM CLIP NAME:  OREH_041341
000274  Z047_1A. V     C        01:00:04:05 01:00:09:05 01:08:25:17 01:08:30:17 
* FROM CLIP NAME:  Z047_1A (LAY11)
000275  Z047_2A. V     C        01:00:12:16 01:00:14:02 01:08:30:17 01:08:32:03 
* FROM CLIP NAME:  Z047_2A (LAY8)
000276  Z047_3C. V     C        01:00:16:09 01:00:19:05 01:08:32:03 01:08:34:23 
* FROM CLIP NAME:  Z047_3C (LAY5)
000277  Z047_5.L V     C        01:00:27:13 01:00:29:08 01:08:34:23 01:08:36:18 
* FROM CLIP NAME:  Z047_5 (LAY11)
000278  Z047_6A. V     C        01:00:29:11 01:00:33:07 01:08:36:18 01:08:40:14 
* FROM CLIP NAME:  Z047_6A (LAY7)
000279  Z047_7C. V     C        01:00:33:07 01:00:34:01 01:08:40:14 01:08:41:08 
* FROM CLIP NAME:  Z047_7C (LAY2)
000280  Z047_8C. V     C        01:00:33:16 01:00:35:03 01:08:41:08 01:08:42:19 
* FROM CLIP NAME:  Z047_8C (LAY2)
000281  Z047_7E. V     C        01:00:35:14 01:00:36:14 01:08:42:19 01:08:43:19 
* FROM CLIP NAME:  Z047_7E (LAY3)
000282  Z047_8D. V     C        01:00:35:20 01:00:36:17 01:08:43:19 01:08:44:16 
* FROM CLIP NAME:  Z047_8D (LAY2)
000283  Z047_7F. V     C        01:00:37:12 01:00:38:13 01:08:44:16 01:08:45:17 
* FROM CLIP NAME:  Z047_7F (LAY1)
000284  Z047_12G V     C        01:00:38:08 01:00:41:06 01:08:45:17 01:08:48:15 
* FROM CLIP NAME:  Z047_12G (LAY5)
000285  Z047_12G V     C        01:00:41:22 01:00:42:19 01:08:48:15 01:08:49:12 
* FROM CLIP NAME:  Z047_12G (LAY5)
000286  Z047_12H V     C        01:00:39:14 01:00:44:00 01:08:49:12 01:08:53:22 
* FROM CLIP NAME:  Z047_12H (LAY5)
000287  Z047_13D V     C        01:00:46:16 01:00:48:09 01:08:53:22 01:08:55:15 
* FROM CLIP NAME:  Z047_13D (LAY5)
000288  Z047_12H V     C        01:00:50:19 01:00:53:12 01:08:55:15 01:08:58:08 
* FROM CLIP NAME:  Z047_12H (LAY5)
000289  Z047_13A V     C        01:00:53:06 01:00:53:12 01:08:58:08 01:08:58:14 
* FROM CLIP NAME:  Z047_13A (LAY7)
000290  Z047_13A V     C        01:00:53:20 01:00:54:13 01:08:58:14 01:08:59:07 
* FROM CLIP NAME:  Z047_13A (LAY7)
000291  Z047_13A V     C        01:00:54:21 01:00:56:07 01:08:59:07 01:09:00:17 
* FROM CLIP NAME:  Z047_13A (LAY7)
000292  Z047_18B V     C        01:00:56:12 01:00:58:07 01:09:00:17 01:09:02:12 
* FROM CLIP NAME:  Z047_18B (LAY9)
000293  Z047_19. V     C        01:00:58:03 01:01:01:04 01:09:02:12 01:09:05:13 
* FROM CLIP NAME:  Z047_19 (LAY11)
000294  Z047_20. V     C        01:01:01:08 01:01:03:07 01:09:05:13 01:09:07:12 
* FROM CLIP NAME:  Z047_20 (LAY12)
000295  Z047_19C V     C        01:01:03:07 01:01:06:12 01:09:07:12 01:09:10:17 
* FROM CLIP NAME:  Z047_19C (LAY3)
000296  Z047_22D V     C        01:01:05:19 01:01:10:11 01:09:10:17 01:09:15:09 
* FROM CLIP NAME:  Z047_22D (LAY3)
000297  Z047_22D V     C        01:01:10:17 01:01:12:00 01:09:15:09 01:09:16:16 
* FROM CLIP NAME:  Z047_22D (LAY3)
000298  Z047_23. V     C        01:01:11:10 01:01:15:07 01:09:16:16 01:09:20:13 
* FROM CLIP NAME:  Z047_23 (LAY12)
000299  Z008_100 V     C        01:00:04:05 01:00:14:19 01:09:20:13 01:09:31:03 
* FROM CLIP NAME:  Z008_100 (LAY13)
000300  Z008_102 V     C        01:00:14:04 01:00:17:01 01:09:31:03 01:09:34:00 
* FROM CLIP NAME:  Z008_102 (LAY13)
000301  Z008_101 V     C        01:00:14:04 01:00:17:10 01:09:34:00 01:09:37:06 
* FROM CLIP NAME:  Z008_101 (LAY12)
000302  Z008_103 V     C        01:00:04:05 01:00:12:23 01:09:37:06 01:09:46:00 
* FROM CLIP NAME:  Z008_103 (LAY19)
000303  Z008_104 V     C        01:00:04:05 01:00:08:11 01:09:46:00 01:09:50:06 
* FROM CLIP NAME:  Z008_104 (LAY6)
000304  Z008_104 V     C        01:00:08:04 01:00:10:14 01:09:50:06 01:09:52:16 
* FROM CLIP NAME:  Z008_104D (LAY7)
000305  Z008_105 V     C        01:00:10:09 01:00:17:22 01:09:52:16 01:10:00:05 
* FROM CLIP NAME:  Z008_105 (LAY8)
000306  Z008_106 V     C        01:00:18:10 01:00:24:17 01:10:00:05 01:10:06:12 
* FROM CLIP NAME:  Z008_106A (LAY10)
000307  Z008_107 V     C        01:00:24:17 01:00:30:22 01:10:06:12 01:10:12:17 
* FROM CLIP NAME:  Z008_107 (LAY6)
000308  Z008_108 V     C        01:00:30:22 01:00:40:12 01:10:12:17 01:10:22:07 
* FROM CLIP NAME:  Z008_108B (LAY8)
000309  Z008_109 V     C        01:00:42:05 01:00:58:22 01:10:22:07 01:10:39:00 
* FROM CLIP NAME:  Z008_109 (LAY12)
000310  Z008_110 V     C        01:00:58:13 01:01:00:11 01:10:39:00 01:10:40:22 
* FROM CLIP NAME:  Z008_110 (LAY13)
000311  Z008_111 V     C        01:01:00:11 01:01:04:00 01:10:40:22 01:10:44:11 
* FROM CLIP NAME:  Z008_111 (LAY7)
000312  Z008_112 V     C        01:01:04:12 01:01:10:01 01:10:44:11 01:10:50:00 
* FROM CLIP NAME:  Z008_112 (LAY11)
000313  Z008_113 V     C        01:01:10:09 01:01:16:15 01:10:50:00 01:10:56:06 
* FROM CLIP NAME:  Z008_113B (LAY6)
000314  Z085_101 V     C        01:00:04:05 01:00:06:09 01:10:56:06 01:10:58:10 
* FROM CLIP NAME:  Z085_101 (LAY7)
000315  Z085_FAM V     C        01:00:08:05 01:00:10:00 01:10:58:10 01:11:00:05 
* FROM CLIP NAME:  Z085_102 (LAY3)
000316  Z085_103 V     C        01:00:10:02 01:00:10:03 01:11:00:05 01:11:02:05 
M2   Z085_103       000.0                01:00:10:02 
* FROM CLIP NAME:  Z085_103 (LAY3) FF 
* * FREEZE FRAME
000317  Z085_103 V     C        01:00:10:02 01:00:12:05 01:11:02:05 01:11:03:07 
M2   Z085_103       048.0                01:00:10:02 
* FROM CLIP NAME:  Z085_103 (LAY3) (48.00 FPS)
000318  Z085_103 V     C        01:00:12:04 01:00:12:05 01:11:03:07 01:11:03:19 
M2   Z085_103       000.0                01:00:12:04 
* FROM CLIP NAME:  Z085_103 (LAY3) FF 
* * FREEZE FRAME
000319  Z085_103 V     C        01:00:12:05 01:00:12:10 01:11:03:19 01:11:04:00 
* FROM CLIP NAME:  Z085_103 (LAY3)
000320  Z085_104 V     C        01:00:12:08 01:00:13:14 01:11:04:00 01:11:05:06 
* FROM CLIP NAME:  Z085_104 (LAY3)
000321  Z085_105 V     C        01:00:13:18 01:00:14:18 01:11:05:06 01:11:06:06 
* FROM CLIP NAME:  Z085_105 (LAY8)
000322  Z085_105 V     C        01:00:15:19 01:00:16:14 01:11:06:06 01:11:07:01 
* FROM CLIP NAME:  Z085_105 (LAY8)
000323  Z085_105 V     C        01:00:16:23 01:00:18:02 01:11:07:01 01:11:08:04 
* FROM CLIP NAME:  Z085_105 (LAY8)
000324  Z085_FAM V     C        01:00:17:11 01:00:18:17 01:11:08:04 01:11:09:10 
* FROM CLIP NAME:  Z085_106 (LAY3)
000325  Z085_9.L V     C        01:00:16:23 01:00:23:12 01:11:09:10 01:11:15:23 
* FROM CLIP NAME:  Z085_9 (LAY15)
000326  Z085_112 V     C        01:00:28:02 01:00:31:04 01:11:15:23 01:11:19:01 
* FROM CLIP NAME:  Z085_112 (LAY5)
000327  Z085_FAM V     C        01:00:55:16 01:00:56:11 01:11:19:01 01:11:19:20 
* FROM CLIP NAME:  Z085_19 (LAY6)
000328  Z085_FAM V     C        01:00:28:18 01:00:30:11 01:11:19:20 01:11:21:13 
* FROM CLIP NAME:  Z085_112 (LAY3)
000329  Z085_FAM V     C        01:00:55:17 01:00:56:18 01:11:21:13 01:11:22:14 
* FROM CLIP NAME:  Z085_19 (LAY6)
000330  Z085_FAM V     C        01:00:28:20 01:00:30:05 01:11:22:14 01:11:23:23 
* FROM CLIP NAME:  Z085_112 (LAY3)
000331  Z085_12D V     C        01:00:28:07 01:00:30:13 01:11:23:23 01:11:26:05 
* FROM CLIP NAME:  Z085_12D (LAY1)
000332  Z085_12D V     C        01:00:32:17 01:00:32:18 01:11:26:05 01:11:28:18 
M2   Z085_12D       000.0                01:00:32:17 
* FROM CLIP NAME:  Z085_12D (LAY1) FF 
* * FREEZE FRAME
000333  Z085_FAM V     C        01:00:08:12 01:00:11:15 01:11:28:18 01:11:31:21 
* FROM CLIP NAME:  Z085_29B (LAY3)
000334  Z085_FAM V     C        01:00:10:20 01:00:10:21 01:11:31:21 01:11:32:15 
M2   Z085_FAM      -024.0                01:00:10:20 
* FROM CLIP NAME:  Z085_29B (LAY3) (-24.00 FPS)
000335  Z085_13. V     C        01:00:37:19 01:00:37:20 01:11:32:15 01:11:34:17 
M2   Z085_13.      -024.0                01:00:37:19 
* FROM CLIP NAME:  Z085_13 (LAY8) (-24.00 FPS)
000336  Z085_14. V     C        01:00:41:13 01:00:42:01 01:11:34:17 01:11:35:05 
* FROM CLIP NAME:  Z085_14 (LAY6)
000337  Z085_14. V     C        01:00:42:10 01:00:42:23 01:11:35:05 01:11:35:18 
* FROM CLIP NAME:  Z085_14 (LAY6)
000338  Z085_16B V     C        01:00:44:17 01:00:51:17 01:11:35:18 01:11:42:18 
* FROM CLIP NAME:  Z085_16B (LAY2)
000339  Z085_FAM V     C        01:00:52:09 01:00:55:18 01:11:42:18 01:11:46:03 
* FROM CLIP NAME:  Z085_19 (LAY6)
000340  Z085_FAM V     C        01:00:58:22 01:01:00:16 01:11:46:03 01:11:47:21 
* FROM CLIP NAME:  Z085_18C (LAY1)
000341  Z085_FAM V     C        01:00:56:20 01:00:57:16 01:11:47:21 01:11:48:17 
* FROM CLIP NAME:  Z085_21A (LAY3)
000342  Z085_FAM V     C        01:00:59:20 01:01:00:23 01:11:48:17 01:11:49:20 
* FROM CLIP NAME:  Z085_18C (LAY1)
000343  Z085_FAM V     C        01:01:01:12 01:01:02:14 01:11:49:20 01:11:50:22 
* FROM CLIP NAME:  Z085_21A (LAY3)
000344  Z085_FAM V     C        01:01:00:13 01:01:01:17 01:11:50:22 01:11:52:02 
* FROM CLIP NAME:  Z085_18C (LAY1)
000345  Z085_FAM V     C        01:01:00:22 01:01:02:18 01:11:52:02 01:11:53:22 
* FROM CLIP NAME:  Z085_21A (LAY3)
000346  Z085_26E V     K B      01:01:02:12 01:01:03:14 01:11:53:22 01:11:55:00 
000346  Z085_26E V     K    000 01:01:03:02 01:01:04:04 01:11:53:22 01:11:55:00 
* FROM CLIP NAME:  Z085_26E (LAY2) 
* KEY CLIP NAME:  Z085_26E (LAY2)
000347  Z085_26E V     C        01:01:04:03 01:01:04:04 01:11:55:00 01:11:55:10 
M2   Z085_26E       000.0                01:01:04:03 
* FROM CLIP NAME:  Z085_26E (LAY2) FF 
* * FREEZE FRAME
000348  Z085_FAM V     C        01:00:04:05 01:00:05:07 01:11:55:10 01:11:56:12 
* FROM CLIP NAME:  Z085_27 (LAY6)
000349  Z085_FAM V     C        01:00:05:07 01:00:06:10 01:11:56:12 01:11:57:02 
M2   Z085_FAM       048.0                01:00:05:07 
* FROM CLIP NAME:  Z085_27 (LAY6) (48.00 FPS)
000350  Z085_FAM V     C        01:00:06:15 01:00:07:07 01:11:57:02 01:11:57:18 
* FROM CLIP NAME:  Z085_27 (LAY6)
000351  Z085_28K V     C        01:00:06:22 01:00:08:07 01:11:57:18 01:11:59:03 
* FROM CLIP NAME:  Z085_28K (LAY1)
000352  Z085_FAM V     C        01:00:08:03 01:00:08:04 01:11:59:03 01:12:01:03 
M2   Z085_FAM       000.0                01:00:08:03 
* FROM CLIP NAME:  Z085_29B (LAY3) FF 
* * FREEZE FRAME
000353  Z085_FAM V     C        01:00:08:04 01:00:11:05 01:12:01:03 01:12:04:04 
* FROM CLIP NAME:  Z085_29B (LAY3)
000354  Z085_FAM V     C        01:00:12:17 01:00:12:18 01:12:04:04 01:12:07:00 
M2   Z085_FAM       000.0                01:00:12:17 
* FROM CLIP NAME:  Z085_29B (LAY3) FF 
* * FREEZE FRAME
000355  Z085_FAM V     C        01:00:12:18 01:00:13:19 01:12:07:00 01:12:08:01 
* FROM CLIP NAME:  Z085_29B (LAY3)
000356  Z085_FAM V     C        01:00:13:19 01:00:16:18 01:12:08:01 01:12:11:00 
* FROM CLIP NAME:  Z085_28A (LAY4)
000357  Z085_FAM V     C        01:00:25:10 01:00:27:09 01:12:11:00 01:12:12:23 
* FROM CLIP NAME:  Z085_34 (LAY2)
000358  Z085_FAM V     C        01:00:26:16 01:00:30:16 01:12:12:23 01:12:16:23 
* FROM CLIP NAME:  Z085_39B (LAY2)
000359  Z085_28M V     C        01:00:30:21 01:00:33:16 01:12:16:23 01:12:19:18 
* FROM CLIP NAME:  Z085_28M (LAY1)
000360  Z085_28M V     C        01:00:33:23 01:00:35:04 01:12:19:18 01:12:20:23 
* FROM CLIP NAME:  Z085_28M (LAY1)
000361  Z085_28M V     C        01:00:35:11 01:00:36:10 01:12:20:23 01:12:21:22 
* FROM CLIP NAME:  Z085_28M (LAY1)
000362  Z085_28M V     C        01:00:36:09 01:00:36:10 01:12:21:22 01:12:22:04 
M2   Z085_28M       000.0                01:00:36:09 
* FROM CLIP NAME:  Z085_28M (LAY1) FF 
* * FREEZE FRAME
000363  Z085_28M V     C        01:00:36:09 01:00:36:17 01:12:22:04 01:12:22:12 
* FROM CLIP NAME:  Z085_28M (LAY1)
000364  Z085_28M V     C        01:00:36:16 01:00:36:17 01:12:22:12 01:12:22:23 
M2   Z085_28M       000.0                01:00:36:16 
* FROM CLIP NAME:  Z085_28M (LAY1) FF 
* * FREEZE FRAME
000365  Z085_28M V     C        01:00:36:17 01:00:39:11 01:12:22:23 01:12:24:20 
M2   Z085_28M       035.9                01:00:36:17 
* FROM CLIP NAME:  Z085_28M (LAY1) (35.92 FPS)
000366  Z085_37A V     C        01:00:39:01 01:00:42:17 01:12:24:20 01:12:28:12 
* FROM CLIP NAME:  Z085_37A (LAY2)
000367  Z085_28. V     C        01:00:33:08 01:00:35:08 01:12:28:12 01:12:30:12 
* FROM CLIP NAME:  Z085_28 (LAY3)
000368  Z085_39D V     C        01:00:04:05 01:00:13:20 01:12:30:12 01:12:40:03 
* FROM CLIP NAME:  Z085_39D (LAY2)
000369  Z085_39D V     C        01:00:16:01 01:00:18:19 01:12:40:03 01:12:42:21 
* FROM CLIP NAME:  Z085_39D (LAY2)
000370  Z085_103 V     C        01:00:15:12 01:00:15:13 01:12:42:21 01:12:44:15 
M2   Z085_103       000.0                01:00:15:12 
* FROM CLIP NAME:  Z085_103 (LAY3) FF 
* * FREEZE FRAME
000371  Z085_104 V     C        01:00:15:13 01:00:15:14 01:12:44:15 01:12:46:03 
M2   Z085_104       000.0                01:00:15:13 
* FROM CLIP NAME:  Z085_104 (LAY3) FF 
* * FREEZE FRAME
000372  Z085_60. V     C        01:00:04:19 01:00:05:10 01:12:46:03 01:12:46:18 
* FROM CLIP NAME:  Z085_60 (LAY2)
000373  Z085_61B V     C        01:00:04:06 01:00:05:05 01:12:46:18 01:12:47:17 
* FROM CLIP NAME:  Z085_61B (LAY1)
000374  Z085_62B V     C        01:00:04:02 01:00:05:05 01:12:47:17 01:12:48:20 
* FROM CLIP NAME:  Z085_62B (LAY2)
000375  Z085_63. V     C        01:00:04:05 01:00:08:14 01:12:48:20 01:12:53:05 
* FROM CLIP NAME:  Z085_63 (LAY3)
000376  Z085_64A V     C        01:00:04:05 01:00:06:03 01:12:53:05 01:12:55:03 
* FROM CLIP NAME:  Z085_64A (LAY1)
000377  Z085_65. V     C        01:00:04:05 01:00:08:22 01:12:55:03 01:12:59:20 
* FROM CLIP NAME:  Z085_65 (LAY5)
000378  Z085_66A V     C        01:00:04:00 01:00:05:18 01:12:59:20 01:13:01:14 
* FROM CLIP NAME:  Z085_66A (LAY3)
000379  Z093_1W. V     C        01:00:05:23 01:00:08:14 01:13:01:14 01:13:04:05 
* FROM CLIP NAME:  Z093_1W (LAY3)
000380  Z093_1Q. V     C        01:00:09:22 01:00:17:13 01:13:04:05 01:13:11:20 
* FROM CLIP NAME:  Z093_1Q (LAY5)
000381  Z093_4A. V     C        01:00:20:09 01:00:23:03 01:13:11:20 01:13:14:14 
* FROM CLIP NAME:  Z093_4A (LAY6)
000382  Z093_5D. V     C        01:00:31:16 01:00:33:13 01:13:14:14 01:13:16:11 
* FROM CLIP NAME:  Z093_5D (LAY5)
000383  Z093_4A. V     C        01:00:34:15 01:00:37:22 01:13:16:11 01:13:19:18 
* FROM CLIP NAME:  Z093_4A (LAY6)
000384  Z093_8Q. V     C        01:00:37:18 01:00:38:01 01:13:19:18 01:13:20:01 
* FROM CLIP NAME:  Z093_8Q (LAY2)
000385  Z093_8Q. V     C        01:00:38:01 01:00:40:10 01:13:20:01 01:13:21:05 
M2   Z093_8Q.       050.6                01:00:38:01 
* FROM CLIP NAME:  Z093_8Q (LAY2) (50.57 FPS)
000386  Z093_8Q. V     C        01:00:40:10 01:00:40:20 01:13:21:05 01:13:21:15 
* FROM CLIP NAME:  Z093_8Q (LAY2)
000387  Z093_8K. V     C        01:00:40:22 01:00:41:20 01:13:21:15 01:13:22:13 
* FROM CLIP NAME:  Z093_8K (LAY7)
000388  Z093_8K. V     C        01:00:41:19 01:00:41:20 01:13:22:13 01:13:23:18 
M2   Z093_8K.       000.0                01:00:41:19 
* FROM CLIP NAME:  Z093_8K (LAY7) FF 
* * FREEZE FRAME
000389  Z093_8B. V     C        01:00:38:18 01:00:41:04 01:13:23:18 01:13:25:00 
M2   Z093_8B.       047.3                01:00:38:18 
* FROM CLIP NAME:  Z093_8B (LAY9) (47.33 FPS)
000390  Z093_8T. V     C        01:00:37:16 01:00:38:19 01:13:25:00 01:13:26:03 
* FROM CLIP NAME:  Z093_8T (LAY1)
000391  Z093_8T. V     C        01:00:38:19 01:00:40:08 01:13:26:03 01:13:27:04 
M2   Z093_8T.       036.5                01:00:38:19 
* FROM CLIP NAME:  Z093_8T (LAY1) (36.48 FPS)
000392  Z093_8T. V     C        01:00:40:08 01:00:41:19 01:13:27:04 01:13:28:15 
* FROM CLIP NAME:  Z093_8T (LAY1)
000393  Z093_9E. V     C        01:00:44:11 01:00:48:09 01:13:28:15 01:13:34:12 
M2   Z093_9E.       016.0                01:00:44:11 
* FROM CLIP NAME:  Z093_9E (LAY9) (16.00 FPS)
000394  Z093_9E. V     C        01:00:48:09 01:00:52:05 01:13:34:12 01:13:38:08 
* FROM CLIP NAME:  Z093_9E (LAY9)
000395  Z093_10K V     C        01:00:02:22 01:00:06:13 01:13:38:08 01:13:41:23 
* FROM CLIP NAME:  Z093_10K (LAY1)
000396  Z093_11A V     C        01:00:07:20 01:00:11:15 01:13:41:23 01:13:45:18 
* FROM CLIP NAME:  Z093_11A (LAY6)
000397  Z093_10J V     C        01:00:08:16 01:00:14:17 01:13:45:18 01:13:49:19 
M2   Z093_10J       036.0                01:00:08:16 
* FROM CLIP NAME:  Z093_10J (LAY4) (35.97 FPS)
000398  Z093_10G V     C        01:00:13:04 01:00:17:13 01:13:49:19 01:13:52:17 
M2   Z093_10G       036.0                01:00:13:04 
* FROM CLIP NAME:  Z093_10G (LAY3) (35.97 FPS)
000399  Z093_10J V     C        01:00:16:22 01:00:22:04 01:13:52:17 01:13:56:05 
M2   Z093_10J       036.0                01:00:16:22 
* FROM CLIP NAME:  Z093_10J (LAY4) (35.97 FPS)
000400  Z093_10G V     C        01:00:23:22 01:00:29:23 01:13:56:05 01:14:00:06 
M2   Z093_10G       036.0                01:00:23:22 
* FROM CLIP NAME:  Z093_10G (LAY3) (35.97 FPS)
000401  Z093_15. V     C        01:00:31:04 01:00:31:05 01:14:00:06 01:14:01:10 
M2   Z093_15.       000.0                01:00:31:04 
* FROM CLIP NAME:  Z093_15 (LAY7) FF 
* * FREEZE FRAME
000402  Z093_15. V     C        01:00:31:04 01:00:33:08 01:14:01:10 01:14:03:14 
* FROM CLIP NAME:  Z093_15 (LAY7)
000403  Z093_16. V     C        01:00:33:00 01:00:34:00 01:14:03:14 01:14:04:14 
* FROM CLIP NAME:  Z093_16 (LAY8)
000404  Z093_16. V     C        01:00:33:23 01:00:34:00 01:14:04:14 01:14:05:04 
M2   Z093_16.       000.0                01:00:33:23 
* FROM CLIP NAME:  Z093_16 (LAY8) FF 
* * FREEZE FRAME
000405  Z093_17. V     C        01:00:34:00 01:00:36:02 01:14:05:04 01:14:07:06 
* FROM CLIP NAME:  Z093_17 (LAY6)
000406  Z093_18. V     C        01:00:36:02 01:00:42:23 01:14:07:06 01:14:14:03 
* FROM CLIP NAME:  Z093_18 (LAY5)
000407  Z093_19. V     C        01:00:42:23 01:00:44:15 01:14:14:03 01:14:15:19 
* FROM CLIP NAME:  Z093_19 (LAY5)
000408  Z093_20. V     C        01:00:45:09 01:00:50:07 01:14:15:19 01:14:20:17 
* FROM CLIP NAME:  Z093_20 (LAY6)
000409  Z093_21. V     C        01:00:53:23 01:00:56:06 01:14:20:17 01:14:23:00 
* FROM CLIP NAME:  Z093_21 (LAY5)
000410  Z093_21B V     C        01:00:54:22 01:00:58:16 01:14:23:00 01:14:26:18 
* FROM CLIP NAME:  Z093_21B (LAY3)
000411  Z093_22. V     C        01:00:53:10 01:00:59:14 01:14:26:18 01:14:30:21 
M2   Z093_22.       036.1                01:00:53:10 
* FROM CLIP NAME:  Z093_22 (LAY9) (36.11 FPS)
000412  780_SONG V     C        01:00:00:01 01:00:04:01 01:14:30:21 01:14:34:21 
* FROM CLIP NAME:  ACAD_TAILPOP_239 (REN2)