TITLE:   R1AB_2017.09.08_z095-z093

000001  ZZZ_HEAD V     C        01:00:00:01 01:00:08:01 01:00:00:00 01:00:08:00 
* FROM CLIP NAME:  ZZZ_HEADLEADER_ALLRATIOS (INTL1)
000002  LG_ZZZZZ V     C        01:00:00:01 01:00:31:05 01:00:08:00 01:00:39:04 
* FROM CLIP NAME:  LG_ZZZZZ_HEAD239 (REN3)
000003  LG_ZZZZZ V     C        01:00:00:01 01:00:12:08 01:00:39:04 01:00:51:11 
* FROM CLIP NAME:  LG_ZZZZZZZZZ_HEAD239 (REN3)
000004  095_ZZZZ V     C        01:00:00:01 01:00:02:20 01:00:51:11 01:00:54:06 
* FROM CLIP NAME:  LG_BLACK239 (REN2)
000005  Z095_1D. V     C        01:00:03:12 01:00:10:16 01:00:54:06 01:01:01:10 
* FROM CLIP NAME:  Z095_1D (LAY2)
000006  Z095_2C. V     C        01:00:09:03 01:00:12:06 01:01:01:10 01:01:04:13 
* FROM CLIP NAME:  Z095_2C (LAY1)
000007  Z095_3B. V     C        01:00:12:14 01:00:14:02 01:01:04:13 01:01:06:01 
* FROM CLIP NAME:  Z095_3B (LAY2)
000008  Z095_4C. V     C        01:00:14:03 01:00:15:09 01:01:06:01 01:01:07:07 
* FROM CLIP NAME:  Z095_4C (LAY1)
000009  Z095_5C. V     C        01:00:04:12 01:00:08:02 01:01:07:07 01:01:10:21 
* FROM CLIP NAME:  Z095_5C (LAY1)
000010  Z095_6D. V     C        01:00:04:10 01:00:06:10 01:01:10:21 01:01:12:21 
* FROM CLIP NAME:  Z095_6D (LAY1)
000011  Z095_7.L V     C        01:00:04:00 01:00:04:23 01:01:12:21 01:01:13:20 
* FROM CLIP NAME:  Z095_7 (LAY6)
000012  Z095_8A. V     C        01:00:03:10 01:00:04:16 01:01:13:20 01:01:15:02 
* FROM CLIP NAME:  Z095_8A (LAY2)
000013  Z095_9D. V     C        01:00:04:05 01:00:08:02 01:01:15:02 01:01:18:23 
* FROM CLIP NAME:  Z095_9D (LAY1)
000014  Z095_9D. V     C        01:00:08:01 01:00:08:02 01:01:18:23 01:01:19:01 
M2   Z095_9D.       000.0                01:00:08:01 
* FROM CLIP NAME:  Z095_9D (LAY1) FF 
* * FREEZE FRAME
000015  Z095_11E V     C        01:00:02:16 01:00:05:08 01:01:19:01 01:01:21:17 
* FROM CLIP NAME:  Z095_11E (LAY2)
000016  Z095_12A V     C        01:00:04:00 01:00:04:16 01:01:21:17 01:01:22:09 
* FROM CLIP NAME:  Z095_12A (LAY9)
000017  Z095_13D V     C        01:00:04:05 01:00:07:20 01:01:22:09 01:01:24:05 
M2   Z095_13D       047.6                01:00:04:05 
* FROM CLIP NAME:  Z095_13D (LAY1) (47.61 FPS)
000018  Z095_16B V     C        01:00:03:20 01:00:10:19 01:01:24:05 01:01:28:21 
M2   Z095_16B       036.0                01:00:03:20 
* FROM CLIP NAME:  Z095_16B (LAY4) (36.00 FPS)
000019  Z095_TON V     C        01:00:10:12 01:00:12:16 01:01:28:21 01:01:31:01 
* FROM CLIP NAME:  Z095_16A (LAY4)
000020  Z095_TON V     C        01:00:09:04 01:00:10:06 01:01:31:01 01:01:32:03 
* FROM CLIP NAME:  Z095_17A (LAY8)
000021  Z095_TON V     C        01:00:05:10 01:00:06:19 01:01:32:03 01:01:33:12 
* FROM CLIP NAME:  Z095_17 (LAY13)
000022  Z095_TON V     C        01:00:06:19 01:00:10:00 01:01:33:12 01:01:35:03 
M2   Z095_TON       048.0                01:00:06:19 
* FROM CLIP NAME:  Z095_17 (LAY13) (48.00 FPS)
000023  Z095_18B V     C        01:00:04:05 01:00:06:23 01:01:35:03 01:01:37:00 
M2   Z095_18B       035.9                01:00:04:05 
* FROM CLIP NAME:  Z095_18B (LAY1) (35.87 FPS)
000024  Z095_18B V     C        01:00:07:00 01:00:08:20 01:01:37:00 01:01:38:20 
* FROM CLIP NAME:  Z095_18B (LAY1)
000025  Z095_19B V     C        01:00:04:15 01:00:11:20 01:01:38:20 01:01:46:01 
* FROM CLIP NAME:  Z095_19B (LAY3)
